# xmcd
#
# Track frame offsets:
#	150
#	14383
#	25307
#	41863
#	57970
#	74435
#	92386
#	105116
#	120900
#	136452
#	151721
#	168203
#	183126
#	201820
#	216252
#	232590
#	249798
#	263819
#	274482
#	286873
#	308740
#	335431
#
# Disc length: 4723 seconds
#
# Revision: 1
# Processed by: cddbd v1.5.2PL0 Copyright (c) Steve Scherf et al.
# Submitted via: audiograbber 1.83.01
#
DISCID=1f127116
DTITLE=Peter Tschernig - Mein Bester Kumpel ... - Die grössten Hits aus 25 Jahr
DTITLE=en
DYEAR=2004
DGENRE=Country
TTITLE0=Mein Bester Kumpel
TTITLE1=Ein Freund, mein Freund
TTITLE2=Zwischen Tür und Angel
TTITLE3=Schlaf schön, Rosemarie
TTITLE4=Jeden vierten Sonntag
TTITLE5=Bewahr´ dir deine Träume der Kindheit
TTITLE6=Gut dreißig Jahre bin ich alt
TTITLE7=Nicht alles, was man glänzen sieht
TTITLE8=Irgendein Haken ist immer dabei
TTITLE9=Du hast gewonnen
TTITLE10=Immer, wenn ich lüge
TTITLE11=Taxi 408
TTITLE12=In dem Land, in dem er jetzt wohnt
TTITLE13=Wir beide
TTITLE14=Zwischen Himmel und Erde
TTITLE15=Typen, so wie der
TTITLE16=Wir sitzen alle im selben Boot
TTITLE17=Country Music
TTITLE18=Ring Of Fire
TTITLE19=Was willst du denn da oben ohne mich
TTITLE20=Alle 2 Sekunden
TTITLE21=Data
EXTD=
EXTT0=
EXTT1=
EXTT2=
EXTT3=
EXTT4=
EXTT5=
EXTT6=
EXTT7=
EXTT8=
EXTT9=
EXTT10=
EXTT11=
EXTT12=
EXTT13=
EXTT14=
EXTT15=
EXTT16=
EXTT17=
EXTT18=
EXTT19=
EXTT20=
EXTT21=
PLAYORDER=
